# AST/ASF file generated using VICON BodyLanguage
# -----------------------------------------------
:version 1.10
:name VICON
:units
  mass 1.0
  length 0.45
  angle deg
:documentation
   .ast/.asf automatically generated from VICON data using
   VICON BodyBuilder and BodyLanguage model FoxedUp or BRILLIANT.MOD
:root
   order TX TY TZ RX RY RZ
   axis XYZ
   position 0 0 0  
   orientation 0 0 0 
:bonedata
  begin
     id 1 
     name lhipjoint
     direction 0.577973 -0.728611 0.367523 
     length 2.48544 
     axis 0 0 0  XYZ
  end
  begin
     id 2 
     name lfemur
     direction 0.34202 -0.939693 0  
     length 7.1921  
     axis 0 0 20  XYZ
    dof rx ry rz
    limits (-160.0 20.0)
           (-70.0 70.0)
           (-60.0 70.0)
  end
  begin
     id 3 
     name ltibia
     direction 0.34202 -0.939693 0   
     length 7.71059   
     axis 0 0 20   XYZ
    dof rx
    limits (-10.0 170.0)
  end
  begin
     id 4 
     name lfoot
     direction 0.089538 -0.246004 0.965124   
     length 2.19909   
     axis -90 7.62852e-016 20   XYZ
    dof rx rz
    limits (-45.0 90.0)
           (-70.0 20.0)
  end
  begin
     id 5 
     name ltoes
     direction 1.53544e-011 -4.21829e-011 1   
     length 1.10116   
     axis -90 7.62852e-016 20   XYZ
    dof rx
    limits (-90.0 20.0)
  end
  begin
     id 6 
     name rhipjoint
     direction -0.554414 -0.743062 0.374812   
     length 2.4371  
     axis 0 0 0  XYZ 
  end
  begin
     id 7 
     name rfemur
     direction -0.34202 -0.939693 0   
     length 7.47254   
     axis 0 0 -20   XYZ
    dof rx ry rz
    limits (-160.0 20.0)
           (-70.0 70.0)
           (-70.0 60.0)
  end
  begin
     id 8 
     name rtibia
     direction -0.34202 -0.939693 0   
     length 7.65855   
     axis 0 0 -20   XYZ
    dof rx
    limits (-10.0 170.0)
 end
 begin
     id 9 
     name rfoot
     direction -0.133779 -0.367555 0.92033   
     length 2.43006  
     axis -90 -7.62852e-016 -20   XYZ
    dof rx rz
    limits (-45.0 90.0)
           (-20.0 70.0)
  end
  begin
     id 10 
     name rtoes
     direction -1.53563e-011 -4.21889e-011 1   
     length 1.19625   
     axis -90 -7.62852e-016 -20   XYZ
    dof rx
    limits (-90.0 20.0)
  end
  begin
     id 11 
     name lowerback
     direction 0.0249066 0.998043 -0.0573585   
     length 2.08485   
     axis 0 0 0   XYZ
    dof rx ry rz
    limits (-20.0 45.0)
           (-30.0 30.0)
           (-30.0 30.0)
  end
  begin
     id 12 
     name upperback
     direction 0.0237884 0.999673 0.00943178   
     length 2.08515   
     axis 0 0 0   XYZ
    dof rx ry rz
    limits (-20.0 45.0)
           (-30.0 30.0)
           (-30.0 30.0)
  end
  begin
     id 13 
     name thorax
     direction 0.0106671 0.999301 0.0358174   
     length 2.09037   
     axis 0 0 0   XYZ
    dof rx ry rz
    limits (-20.0 45.0)
           (-30.0 30.0)
           (-30.0 30.0)
  end
  begin
     id 14 
     name lowerneck
     direction -0.0580016 0.987052 0.149546   
     length 1.84454   
     axis 0 0 0   XYZ
    dof rx ry rz
    limits (-20.0 45.0)
           (-30.0 30.0)
           (-30.0 30.0)
  end
  begin
     id 15 
     name upperneck
     direction 0.079456 0.981963 -0.171567   
     length 1.88141   
     axis 0 0 0   XYZ
    dof rx ry rz
    limits (-20.0 45.0)
           (-30.0 30.0)
           (-30.0 30.0)
  end
  begin
     id 16
     name head
     direction 0.0262167 0.9967 -0.0768276  
     length 1.89541  
     axis 0 0 0   XYZ
    dof rx ry rz
    limits (-20.0 45.0)
           (-30.0 30.0)
           (-30.0 30.0)
  end
  begin
     id 17 
     name lclavicle
     direction 0.946135 0.322134 -0.0325326  
     length 3.949  
     axis 0 0 0   XYZ
    dof ry rz
    limits (-20.0 10.0)
           (0.0 20.0)
  end
  begin
     id 18 
     name lhumerus
     direction 1 -4.48964e-011 1.94005e-028   
     length 5.10995   
     axis 180 -30 -90   XYZ
    dof rx ry rz
    limits (-60.0 90.0)
           (-90.0 90.0)
           (-90.0 90.0)
  end
  begin
     id 19
     name lradius
     direction 1 -4.48976e-011 2.87852e-027   
     length 3.21207   
     axis 180 -30 -90   XYZ
    dof rx
    limits (-10.0 170.0)
  end
  begin
     id 20
     name lwrist
     direction 1 -4.48963e-011 1.9975e-027   
     length 1.60604   
     axis 2.96054e-016 90 90   XYZ
    dof ry
    limits (-180.0 0.0)
 end
  begin
     id 21 
     name lhand
     direction 1 -4.48919e-011 4.00227e-027   
     length 0.63349   
     axis -2.5488e-015 90 90   XYZ
    dof rx rz
    limits (-90.0 90.0)
           (-45.0 45.0)
  end
  begin
     id 22 
     name lfingers
     direction 1 -4.49037e-011 7.9652e-027   
     length 0.510736   
     axis -5.0975e-015 90 90   XYZ
    dof rx
    limits (0.0 90.0)
  end
  begin
     id 23
     name lthumb
     direction 0.707107 -6.34922e-011 0.707107   
     length 0.733318   
     axis -90 45 -4.48553e-014   XYZ
    dof rx rz
    limits (-45.0 45.0)
           (-45.0 45.0)
  end
  begin
     id 24 
     name rclavicle
     direction -0.940085 0.328911 -0.0897654   
     length 3.93848  
     axis 0 0 0   XYZ 
    dof ry rz
    limits (-10.0 20.0)
           (-20.0 0.0)
  end
  begin
     id 25 
     name rhumerus
     direction -1 -4.48958e-011 3.02044e-027  
     length 5.25109   
     axis 180 30 90   XYZ
    dof rx ry rz
    limits (-90.0 60.0)
           (-90.0 90.0)
           (-90.0 90.0)
  end
  begin
     id 26 
     name rradius
     direction -1 -4.4897e-011 9.78352e-028   
     length 3.28364   
     axis 180 30 90   XYZ
    dof rx
    limits (-10.0 170.0)
  end
  begin
     id 27 
     name rwrist
     direction -1 -4.48943e-011 1.99918e-027   
     length 1.64182   
     axis 2.96054e-016 -90 -90   XYZ
    dof ry
    limits (-180.0 0.0)
  end
  begin
     id 28
     name rhand
     direction -1 -4.49024e-011 3.98478e-027   
     length 0.599745   
     axis -2.5488e-015 -90 -90   XYZ
    dof rx rz
    limits (-90.0 90.0)
           (-45.0 45.0)
  end
  begin
     id 29
     name rfingers
     direction -1 -4.48914e-011 8.00621e-027   
     length 0.48353   
     axis -5.0975e-015 -90 -90   XYZ
    dof rx
    limits (0.0 90.0)
  end
  begin
     id 30
     name rthumb
     direction -0.707107 -6.34992e-011 0.707107   
     length 0.694255   
     axis -90 -45 4.48553e-014   XYZ
    dof rx rz
    limits (-45.0 45.0)
           (-45.0 45.0)
  end
:hierarchy
  begin
    root lhipjoint rhipjoint lowerback
    lhipjoint lfemur
    lfemur ltibia
    ltibia lfoot
    lfoot ltoes
    rhipjoint rfemur
    rfemur rtibia
    rtibia rfoot
    rfoot rtoes
    lowerback upperback
    upperback thorax
    thorax lowerneck lclavicle rclavicle
    lowerneck upperneck
    upperneck head
    lclavicle lhumerus
    lhumerus lradius
    lradius lwrist
    lwrist lhand lthumb
    lhand lfingers
    rclavicle rhumerus
    rhumerus rradius
    rradius rwrist
    rwrist rhand rthumb
    rhand rfingers
  end

#!OML:ASF E:\CV Data\Top Level 1\Subject 1\Session 1\player.ASF
:FULLY-SPECIFIED
:DEGREES
451
root -1.54818 15.2938 -14.1582 -0.144769 29.9505 -2.55133
lowerback 21.7542 -1.93645 4.44104
upperback 3.72944 -1.18064 2.5545
thorax -8.10778 -0.61025 0.57951
lowerneck -10.884 -10.1109 -14.7049
upperneck -20.124 -10.1535 18.4756
head -2.27888 -4.67795 7.9912
rclavicle 2.60408e-014 -9.54166e-015
rhumerus 21.0918 14.0081 -80.4388
rradius 94.5048
rwrist 0.96369
rhand -36.2493 9.44058
rfingers 7.12502
rthumb -9.35035 -20.332
lclavicle 2.60408e-014 -9.54166e-015
lhumerus 23.0628 -29.606 85.929
lradius 76.4173
lwrist 45.9633
lhand -24.8166 26.4682
lfingers 7.12502
lthumb 1.6887 56.4412
rfemur -47.522 15.9086 4.18478
rtibia 62.5987
rfoot -16.5268 -4.95516
rtoes -18.7196
lfemur -37.0491 10.9575 -21.4932
ltibia 72.2082
lfoot -29.7287 -1.119
ltoes -4.65047
452
root -1.5706 15.1953 -14.0099 -1.15503 30.869 -3.01706
lowerback 21.5731 -2.05791 4.61709
upperback 3.5851 -1.3022 2.58464
thorax -8.17662 -0.674855 0.54562
lowerneck -10.6568 -10.1883 -14.8593
upperneck -19.3552 -10.3675 18.349
head -2.05499 -4.77704 7.92856
rclavicle 6.95746e-015 -2.38542e-014
rhumerus 23.6451 13.8699 -79.1369
rradius 95.2984
rwrist 1.94318
rhand -36.4574 9.45128
rfingers 7.12502
rthumb -9.55118 -20.3122
lclavicle 6.95746e-015 -2.38542e-014
lhumerus 25.6483 -29.4257 84.8152
lradius 76.7613
lwrist 46.997
lhand -24.7094 26.3864
lfingers 7.12502
lthumb 1.79228 56.3586
rfemur -46.8131 15.3469 5.15882
rtibia 64.3032
rfoot -17.9574 -4.82303
rtoes -19.8127
lfemur -36.6422 10.6993 -20.546
ltibia 73.8479
lfoot -30.29 -1.19682
ltoes -5.4898
453
root -1.59166 15.1039 -13.8624 -2.14797 31.7636 -3.52743
lowerback 21.3362 -2.18267 4.73373
upperback 3.46374 -1.44004 2.68822
thorax -8.18792 -0.743876 0.627534
lowerneck -10.4854 -10.2517 -15.1341
upperneck -18.5982 -10.5444 18.2175
head -1.82736 -4.84897 7.88666
rclavicle 3.47873e-014 -1.82882e-014
rhumerus 26.2443 13.7517 -77.7357
rradius 96.0199
rwrist 2.81656
rhand -36.6802 9.47929
rfingers 7.12502
rthumb -9.76607 -20.2743
lclavicle 3.47873e-014 -1.82882e-014
lhumerus 28.2478 -29.0286 83.8513
lradius 77.0912
lwrist 48.2757
lhand -24.6475 26.2517
lfingers 7.12502
lthumb 1.85201 56.2234
rfemur -46.0924 14.6876 6.27644
rtibia 65.948
rfoot -19.289 -5.06324
rtoes -20.3959
lfemur -36.2871 10.4509 -19.5661
ltibia 75.4406
lfoot -30.7359 -1.38273
ltoes -6.34356
454
root -1.61076 15.0305 -13.7174 -3.09378 32.6029 -4.06007
lowerback 21.0616 -2.29713 4.80087
upperback 3.33679 -1.57582 2.82727
thorax -8.18251 -0.81019 0.773853
lowerneck -10.3194 -10.2972 -15.4735
upperneck -17.8772 -10.6874 18.0819
head -1.61274 -4.90165 7.85936
rclavicle -1.66979e-014 -1.82882e-014
rhumerus 28.8104 13.6186 -76.3066
rradius 96.6671
rwrist 3.71755
rhand -36.9777 9.41561
rfingers 7.12502
rthumb -10.0532 -20.3243
lclavicle -1.66979e-014 -1.82882e-014
lhumerus 30.7782 -28.481 83.0074
lradius 77.4191
lwrist 49.726
lhand -24.6116 26.0282
lfingers 7.12502
lthumb 1.88671 55.9996
rfemur -45.3414 13.9963 7.47305
rtibia 67.4175
rfoot -20.4434 -5.66074
rtoes -20.973
lfemur -35.9386 10.2267 -18.5702
ltibia 76.903
lfoot -31.08 -1.67205
ltoes -7.27573
455
root -1.62994 14.9541 -13.5713 -3.97061 33.3659 -4.58368
lowerback 20.7379 -2.38186 4.79708
upperback 3.20441 -1.69172 2.9824
thorax -8.15289 -0.864968 0.96974
lowerneck -10.1139 -10.3235 -15.8372
upperneck -17.2313 -10.8008 17.9407
head -1.43069 -4.94168 7.84284
rclavicle -3.16068e-014 -2.38542e-014
rhumerus 31.3123 13.4378 -74.8729
rradius 97.2344
rwrist 4.71385
rhand -37.3694 9.29333
rfingers 7.12502
rthumb -10.431 -20.4279
lclavicle -3.16068e-014 -2.38542e-014
lhumerus 33.2172 -27.8394 82.2556
lradius 77.742
lwrist 51.2268
lhand -24.5415 25.7452
lfingers 7.12502
lthumb 1.95437 55.716
rfemur -44.6791 13.3076 8.67273
rtibia 68.7991
rfoot -21.4343 -6.46246
rtoes -21.3071
lfemur -35.6717 10.0412 -17.5594
ltibia 78.3103
lfoot -31.3661 -2.09632
ltoes -8.24904
456
root -1.64799 14.8864 -13.4265 -4.76742 34.0353 -5.06046
lowerback 20.3838 -2.42336 4.73378
upperback 3.06282 -1.76991 3.10861
thorax -8.11415 -0.900899 1.15547
lowerneck -9.84159 -10.3318 -16.1557
upperneck -16.6729 -10.8955 17.7907
head -1.29095 -4.97905 7.82533
rclavicle -7.25564e-015 -3.33958e-014
rhumerus 33.7001 13.1523 -73.4995
rradius 97.727
rwrist 5.77814
rhand -37.834 9.13044
rfingers 7.12502
rthumb -10.8792 -20.5678
lclavicle -7.25564e-015 -3.33958e-014
lhumerus 35.5541 -27.1919 81.5346
lradius 78.0492
lwrist 52.6441
lhand -24.4281 25.4471
lfingers 7.12502
lthumb 2.06389 55.4168
rfemur -44.0619 12.6815 9.80397
rtibia 70.0553
rfoot -22.2827 -7.31521
rtoes -21.4339
lfemur -35.4016 9.89528 -16.568
ltibia 79.5708
lfoot -31.6089 -2.63279
ltoes -9.28119
